<svg xmlns="http://www.w3.org/2000/svg" width="137.376" height="137.377" viewBox="0 0 137.376 137.377"><path opacity=".1" fill="#64594F" d="M3.1 70.239l67.138-67.138 67.138 67.138-67.138 67.138z"/><path fill="#FFDFA1" d="M0 67.138l67.138-67.138 67.137 67.137-67.138 67.138z"/><path fill="#FFD98D" d="M0 67.138l67.137-67.137.626.626-67.137 67.137z"/><path fill="#ECD19D" d="M45.42 40.029c.74 2.863 1.305 5.748 1.565 8.696.145 1.642.24 3.303.2 4.952l-.046 1.71c-.017.728-1.035 1-1.318.279-.117-.297.009-.723.048-1.015.083-.661.16-1.319.209-1.983.124-1.655.139-3.306.054-4.964-.145-1.659-.336-3.294-.661-4.929-.131-.66-.305-1.306-.452-1.962-.028-.116-.196-.513-.159-.644-.09-.359.47-.5.56-.14zM46.589 60.682l-.422 2.266c-.083.442-.216.849-.646 1.08-.743.398-1.68-.132-1.719-.974-.036-.791.506-1.756.752-2.486.126-.377.232-.756.625-.951.717-.357 1.557.28 1.41 1.065zM24.039 91.179c3.417-1.605 6.6-3.644 9.442-6.136 1.004-.881 2.044-1.817 2.905-2.844 1.156-1.219.712-3.294-.853-3.918-1.409-.562-2.402.343-3.369 1.22-1.18 1.069-2.411 2.128-3.727 3.028-1.402 1-2.845 2.044-4.387 2.82-1.165.636-2.798 1.137-3.754 2.086l3.743 3.744zM67.379 60.392l.001-.004-.001-.004z"/><path fill-rule="evenodd" clip-rule="evenodd" fill="#ECD19D" d="M68.037 59.634c-.188-5.026-.779-9.954-2.382-14.752-.908-2.66-1.99-5.235-3.344-7.701-.709-1.292-1.489-2.547-2.324-3.761-.438-.636-.891-1.26-1.361-1.873.245-.503.229-1.102.126-1.638-.389-2.021-2.34-4.613-4.567-4.753-.377-.023-.764.056-1.067.291-.253.193-1.24-.839-1.533-1.072-1.166-.926-2.392-1.776-3.657-2.561-.577-.358-1.352-1.251-1.914-.689l-1.347 1.347-2.451 2.451c.482.197 1.512.885 1.957.636.448-.25.947-.401 1.452-.483 1.353-.219 2.765.025 4.043.482.689.247 1.354.562 1.979.941.305.184.6.383.886.595.017.268.065.534.134.794.358 1.348 1.24 2.591 2.322 3.458.326.261.519.228.473.69-.034.33-.125.653-.276.949-.092.171 1.091 1.144 1.285 1.336 1.084 1.076 2.109 2.211 3.06 3.407 1.832 2.304 3.402 4.799 4.641 7.471 2.15 4.64 3.006 9.39 3.277 14.446.17 4.664-.566 9.261-2.241 13.651-1.383 3.624-3.36 6.985-5.791 10.004-1.185 1.471-2.479 2.854-3.858 4.145-.77.722-1.566 1.414-2.385 2.078-.591.479-2.309 1.372-2.283 2.096.061 1.708-.969 3.319-2.538 3.987-.633.269-1.33.38-2.015.317-.712-.064-1.836-.867-2.372-.614-3.824 1.808-7.854 3.077-12.027 3.77l2.557 2.557 1.516 1.515c.614.614 1.393.095 2.183-.125 5.923-1.65 11.462-4.777 15.952-8.976 1.074 1.867 3.325-.175 4.065-1.245.648-.938 1.112-2.053 1.218-3.193.043-.47.026-.956-.117-1.408.42-.575.827-1.161 1.218-1.757 1.478 1.232 3.08-1.419 1.339-2.18 2.49-4.219 4.193-8.959 5.228-13.737.45-2.077.769-4.182.935-6.3.121-1.527.027-3.085.004-4.596-.019-.498.007.501 0 0zM43.555 71.084c-.439.8-1.419 1.646-2.4 1.308-1.205-.415-1.046-2.042-.558-2.932.439-.801 1.419-1.646 2.401-1.308 1.204.414 1.044 2.043.557 2.932zM42.935 74.466c-.579 1.468-2.295.791-1.718-.677.578-1.467 2.298-.79 1.718.677z"/><g opacity=".6" fill="#163E47"><path d="M59.347 68.601c.12-.5.342-.108.25.203-.152.547-.287 1.098-.452 1.642-.363 1.116-.837 2.226-1.833 2.917-1.142.787-2.231 1.35-3.237 2.354-.257.256-1.339 1.667-1.588 1.667-.358-.065-.265-.712-.324-.996-.231-1.13-.639-2.229-1.063-3.299-.365-.92-.764-1.831-1.181-2.728-.176-.378-.351-.757-.533-1.131-.023-.047-.487-1.074-.105-.796.443.336.682 1.481.891 1.985.478 1.151.942 2.306 1.355 3.481.088.258.952 3.409.907 3.409l-.061-.02c1.367-1.608 2.682-2.886 4.582-3.84 1.8-.905 2.014-3.109 2.392-4.848zM58.888 68.78c.186-.223.344.083.154.25-.359.338-.717.9-.562 1.415.44 1.509 2.651.156 3.326-.37.914-.713 1.624-1.591 2.164-2.614.162-.318 1.2-3.384 1.333-3.357.338.069-.669 2.257-.766 2.479-.541 1.22-1.318 2.486-2.294 3.412-.736.698-1.966 1.418-3.026 1.194-1.284-.288-.932-1.649-.329-2.409zM64.624 64.539c.073-.4.306.005.221.271-.177.573-.245 1.204-.231 1.801.003.147.168 1.458.396 1.106.376-.408.521-1.156.695-1.671.185-.639.434-.473 1.121-.595 1.293-.23 2.626-.709 3.259-1.951.615-1.172.97-2.498 1.125-3.809.017-.119.177-.292.271-.109.07.14-.031.394-.061.526-.144.583-.289 1.162-.486 1.729-.471 1.354-1.066 2.526-2.359 3.23-.786.428-1.712.705-2.609.71l.067-.05c-.105.279-.979 2.586-1.278 2.078-.471-.939-.332-2.264-.131-3.266zM77.999 54.447c.245.115-2.549 4.772-2.807 5.182-.108.174-.693 1.367-1.031 1.136-.751-.492-1.15-2.26-1.445-3.042.004.978-.037 1.959-.181 2.927-.1.679-.22 1.887-.908 2.262-1.278.746-1.043-3.097-.74-3.082.073.01-.048 4.327.99 2.506.391-.699.496-1.579.584-2.36.079-.697.373-2.008.104-2.657-.656-1.816-1.272-3.674-1.668-5.566-.114-.54-.335-1.249-.18-1.799.256-.673 1.02.692 1.099.899.604 1.565.756 3.351.847 5.012.089 1.629.44 3.283 1.415 4.662.305.582 1.46-1.718 1.603-1.972.18-.325 2.1-4.217 2.318-4.108zm-6.13.145c.226.791.461 1.579.719 2.359-.008-1.246-.098-2.5-.295-3.73-.147-.917-.326-2.595-1.17-3.166-.437-.311-.223.563-.188.752.209 1.279.587 2.539.934 3.785zM82.574 50.984c.118.046-1.985 6.013-2.139 6.56-.162.598-.324 1.195-.482 1.794-.209.789.085 1.14.244 1.915.146.699.038 1.556-.679 1.901-.428.211-.416-.542-.409-.736.018-.592.133-1.18.265-1.756.158-.689.17-.906-.168-1.524-.621-1.146-1.521-2.256-1.901-3.517-.024-.082-.016-1.002.166-.671.164.344.134.799.295 1.17.513 1.237 1.307 2.341 1.862 3.559.25-.831 2.684-8.79 2.946-8.695zm-2.409 10.815c-.011-.559-.211-1.104-.437-1.608-.211.823-.489 1.705-.479 2.562.006.27.112.388.361.229.393-.267.568-.719.555-1.183zM59.696 82.726c.332.212-2.437 2.387-2.678 2.566-1.335.991-2.661 1.989-4.056 2.896-.467.304-.971.58-1.401.937-.157.146.479.795.588.968.877 1.395 1.439 2.946 1.905 4.519.678-.792 1.606-1.199 2.436-1.794.896-.643 1.701-1.397 2.347-2.293.259-.358.483-.733.68-1.129.087-.184.167-.741.35-.838.468-.218-.458 1.348-.496 1.404-.623.944-1.395 1.778-2.277 2.486-.829.68-1.84 1.126-2.604 1.879-.826.813.319 1.426.019 2.312-.114.357-.298-.255-.314-.347-.075-.448-.166-.893-.259-1.338-.149.191-1.116 1.974-1.276 1.894-.34-.168 1.053-1.854 1.235-2.06-.256-1.039-.577-2.063-.989-3.051-.27-.632-.583-1.241-.976-1.805-.071-.103-.56-.563-.56-.692 0-.404 1.009-.932 1.332-1.149.952-.658 1.964-1.227 2.908-1.896.757-.526 1.497-1.087 2.203-1.681.193-.167 1.732-1.886 1.883-1.788zM59.301 89.066c.079-.403.308.005.222.27-.177.572-.247 1.205-.231 1.802.003.147.166 1.455.395 1.107.375-.41.523-1.156.696-1.673.186-.638.433-.473 1.121-.594 1.296-.229 2.621-.711 3.259-1.951.621-1.189.934-2.49 1.125-3.809.016-.115.178-.296.27-.109.071.139-.03.395-.061.525-.142.583-.289 1.162-.487 1.729-.471 1.354-1.065 2.524-2.358 3.23-.79.431-1.708.697-2.609.711l.066-.051c-.104.272-1.001 2.588-1.277 2.077-.508-.896-.316-2.29-.131-3.264zM72.023 79.46c.098-.319.333-.041.24.197-.225.56-.392 1.14-.632 1.694-.523 1.208-1.21 2.363-2.095 3.341-.673.744-2.235 2.353-3.384 1.812-.906-.423-.892-1.93-.451-2.653.171-.298.479-.169.267.113-.292.35-.401.838-.366 1.283.125 1.751 1.791 1.17 2.731.46 2.043-1.541 3.088-3.84 3.69-6.247zM78.039 74.932c.351.193-1.729 2.762-1.898 2.961-.562.659-1.16 1.279-1.811 1.851-.362.317-.737.618-1.115.916.202.657.195.732.851.941.316.099 1.381.354 1.337.854-.074.572-1.299.249-1.565.104-.263-.157-.37-.506-.478-.771-.137-.351-.331-.349-.689-.431-.023-.006-.395-.094-.348-.063l-.049-.032.026-.127c.573-.271.728-.385.585-1.013-.185-.819-.278-1.687-.511-2.492-.047.203-.416 2.497-.731 2.384-.219-.079.332-1.597.367-1.745.179-.758.238-1.324.107-2.092-.063-.369-.713-2.831-.283-3.051.526-.386.706 2.793.695 3.033-.032.73-.092 1.31.057 2.029.167.794.358 1.586.595 2.363 1.026-.78 1.959-1.674 2.777-2.671.196-.238 1.959-3.008 2.081-2.948zm-6.072-.445c.091.734.204 1.464.328 2.193.113-.991.293-2.623-.392-3.445-.099.379.029.878.064 1.252zm1.046 6.822l.197.047-.16-.572c-.179.139-.375.267-.564.392l.527.133zm1.254.548c-.241-.093-.487-.176-.734-.25.272.658.497.949 1.273.928.914-.035-.252-.574-.539-.678zM83.38 70.863c.161-.258.372.019.207.218-.288.345-.504.764-.762 1.133-.68.972-1.425 1.97-2.326 2.749-.378.326-.796.607-1.212.88-.357.253-.224.5-.283.961-.068.528-.19 1.163-.66 1.486-.559.276-1.052-.463-1.276-.911-.199-.406-.312-2.029.463-2.105.23-.027-.445 1.138-.455 1.347-.028.783.992 2.376 1.6 1.104.239-.5.311-1.177.214-1.722.151-.412.841-.735 1.214-1.01 1.471-1.086 2.467-2.511 3.276-4.13zM92.503 63.967c.207-.414.293.095.134.339-.312.486-.579 1.003-.858 1.509-.612 1.104-1.182 2.242-1.838 3.319-.422.692-1.326 2.016-1.936.797-.106-.288-.345-2.237-.435-2.253l.154.038c-1.129 1.48-2.567 2.866-4.323 3.564-.251.099-.866.001-.374-.18.418-.104.816-.271 1.201-.466 1.218-.614 2.249-1.56 3.119-2.599.379-.453.299-.469.4.112.154.912.421 2.876 1.556 1.536 1.427-1.682 2.164-3.803 3.2-5.716zM98.978 59.268c.026-.063.193-.441.324-.386.158.078-.974 3.023-1.045 3.293-.351 1.409-.57 2.849-.59 4.302-.021 1.569.197 3.127.566 4.65.081.334.993 2.73.692 2.825-.825.283-3.837-10.489-4.119-11.558l.219.003c-.127 0-.538 1.668-.615 1.892-.213.624-.543 2.134-1.217 2.408-.959.543-1.266-2.477-1.008-2.483.211 0 .38 1.615.445 1.785.426 1.12.927-.069 1.174-.637.128-.295 1.011-3.042 1.142-2.999.116 0 .829 2.912.92 3.221.385 1.302.787 2.6 1.229 3.884.452 1.309.943 2.623 1.552 3.868.058.108.202.575.145.461-.075-.075-.128-.417-.161-.518-.206-.637-.392-1.279-.539-1.933-.315-1.404-.501-2.838-.53-4.277-.049-2.593.378-5.406 1.416-7.801z"/></g><g opacity=".6" fill="#163E47"><path d="M72.673 43.158c-.162-.024-1.059.426-1.3.496-.268.077-1.507.569-1.76.336-.371-.331.896-.22 1.028-.239.694-.109 1.377-.349 2.032-.593.052.008-.406.152 0 0zm.167-.679c-.188-.021-1.038.422-1.301.495-.268.077-1.507.569-1.76.336-.375-.326.9-.22 1.028-.239.694-.109 1.378-.348 2.033-.592.051.006-.407.152 0 0zM74.019 37.191c.529.171.902 1.521 1.022 1.968.233.873.264 1.788.164 2.683-.099.884-.328 1.752-.645 2.582-.123.323-.621 1.901-1.085 1.927-.221.012.78-1.627.837-1.739.402-.789.646-1.659.78-2.532.157-1.015.131-2.093-.171-3.081-.104-.339-.518-1.659-.902-1.808z"/></g></svg>